:SAMPLES-PER-SECOND 30
:FULLY-SPECIFIED
:DEGREES
153
root  22.8465 39.3061 16.1086 -172.788 -74.1203 169.971
RightUpLeg  -6.70032 -15.3724 -13.9826
RightLeg  9.13317 -7.36127 -0.490096
RightFoot  3.11876 -0.688739 5.57456
RightToes  2.21189e-009 0 -3.6325e-017
Spine  6.80814 0.0296168 5.60119
Spine1  8.38528 1.23854 -4.19653
HEad  -13.6141 4.79808 -7.57488
LeftShoulder1  -0.559204 5.10367 -28.7839
LeftArm  -4.62703 9.85339 -43.5309
LeftForeArm  20.158 -21.3666 -3.95368
LeftHand  -0.0914963 0.72957 2.18581
RightShoulder  -0.563556 -5.28798 24.8142
RightArm  6.21123 -6.43405 47.4975
RightForeArm  13.1365 26.8869 5.08293
RightHand  -0.426663 4.49235 -5.28424
LeftUpLeg  8.68272 9.64481 5.72429
LeftLeg  6.14404 6.59362 -0.286225
LeftFoot  -7.96744 0.177279 -4.40923
LeftToes  -3.01956e-010 3.07132e-011 1.04116e-011
154
root  22.5687 39.2867 15.2981 -176.941 -73.0105 173.907
RightUpLeg  -6.74283 -16.1039 -12.0984
RightLeg  11.0827 -5.56334 -0.107912
RightFoot  1.68023 -0.51441 4.61968
RightToes  2.21189e-009 0 -3.6325e-017
Spine  6.86642 0.205477 8.25806
Spine1  8.77733 1.8455 -5.22493
HEad  -14.4457 4.79773 -7.87107
LeftShoulder1  -0.51344 4.98446 -28.4976
LeftArm  -5.84888 10.4994 -44.1946
LeftForeArm  21.1044 -23.1168 -3.87725
LeftHand  -0.116311 0.0170815 2.53276
RightShoulder  -0.587694 -5.34132 25.2316
RightArm  7.79871 -4.34045 48.2723
RightForeArm  12.363 26.8356 5.11401
RightHand  -0.487071 4.67196 -5.90197
LeftUpLeg  9.37855 10.4334 8.00169
LeftLeg  7.46516 6.69944 0.408135
LeftFoot  -7.81582 0.233296 -6.06483
LeftToes  -3.01956e-010 3.07132e-011 1.04116e-011
155
root  22.3138 39.2662 14.4249 -179.262 -72.1907 176.167
RightUpLeg  -6.42284 -16.6827 -10.55
RightLeg  12.2694 -4.55577 0.266039
RightFoot  -0.0085156 -0.4512 4.53468
RightToes  2.21189e-009 0 -3.6325e-017
Spine  7.21171 0.27401 9.08006
Spine1  8.40758 1.83257 -4.38847
HEad  -15.4037 5.44728 -7.41005
LeftShoulder1  -0.527178 5.02493 -28.474
LeftArm  -7.60889 11.5927 -44.8163
LeftForeArm  22.1736 -24.1483 -3.99359
LeftHand  -0.12043 0.516009 2.86219
RightShoulder  -0.520263 -5.15431 24.7255
RightArm  9.93065 -2.51732 49.6353
RightForeArm  11.995 25.951 4.93545
RightHand  -0.422305 4.4041 -5.28611
LeftUpLeg  9.29672 11.3074 10.2109
LeftLeg  9.80893 5.91158 0.999525
LeftFoot  -7.3963 0.346062 -8.72672
LeftToes  -3.01956e-010 3.07132e-011 1.04116e-011
156
root  22.094 39.2574 13.5268 179.11 -71.7024 177.749
RightUpLeg  -6.09435 -15.8212 -9.03773
RightLeg  13.4293 -5.12459 0.356663
RightFoot  -1.53242 -0.317057 3.56546
RightToes  2.21189e-009 0 -3.6325e-017
Spine  7.22506 0.20802 9.49746
Spine1  8.4786 1.67199 -3.12412
HEad  -15.266 6.87668 -7.3794
LeftShoulder1  -0.481986 4.90579 -28.1909
LeftArm  -6.5162 12.1621 -44.7627
LeftForeArm  21.0263 -24.5896 -4.15311
LeftHand  -0.105433 1.4255 2.93774
RightShoulder  -0.484972 -5.03122 24.9125
RightArm  12.2338 -0.60615 50.6296
RightForeArm  10.6913 24.5887 4.70276
RightHand  -0.432092 4.70673 -5.25313
LeftUpLeg  8.22804 11.5975 12.1767
LeftLeg  13.5288 5.22793 1.66352
LeftFoot  -6.1729 0.537601 -10.9963
LeftToes  -3.01956e-010 3.07132e-011 1.04116e-011
157
root  21.9043 39.234 12.6686 177.839 -71.5158 179.2
RightUpLeg  -5.93359 -14.9346 -7.60844
RightLeg  14.5229 -6.05417 0.495787
RightFoot  -3.04338 -0.203379 2.51997
RightToes  2.21189e-009 0 -3.6325e-017
Spine  7.18233 -0.00938184 10.5408
Spine1  8.40021 1.62008 -2.7757
HEad  -15.3507 6.70105 -6.78693
LeftShoulder1  -0.437097 4.78418 -27.9522
LeftArm  -4.94055 11.8383 -44.5418
LeftForeArm  22.0608 -23.9346 -3.96306
LeftHand  -0.085107 0.54779 1.97108
RightShoulder  -0.513143 -5.11076 25.1208
RightArm  13.4842 0.529856 51.757
RightForeArm  10.0241 23.4647 4.50515
RightHand  -0.473396 5.02833 -5.57087
LeftUpLeg  5.78981 10.5746 13.6318
LeftLeg  18.7718 6.16529 2.68332
LeftFoot  -3.95222 0.829836 -12.4313
LeftToes  -3.01956e-010 3.07132e-011 1.04116e-011
